<svg width="28" height="28" viewBox="0 0 28 28" fill="none" xmlns="http://www.w3.org/2000/svg">
<g clip-path="url(#clip0_497_155)">
<path d="M28.0001 0H0.00012207V28H28.0001V0Z" fill="#04795B"/>
<path fill-rule="evenodd" clip-rule="evenodd" d="M14.0062 5.24902C16.4985 5.24902 18.7496 6.29381 20.3375 7.96141C20.5585 8.18242 20.7662 8.43022 20.9404 8.67135L13.9995 15.6164L7.05862 8.67803C7.2529 8.43022 7.4606 8.18914 7.67497 7.96141C9.26951 6.29381 11.5139 5.24902 14.0062 5.24902ZM19.3861 8.61775C17.9591 7.17783 16.0564 6.38757 14.0062 6.38757C11.9561 6.38757 10.0601 7.17783 8.62635 8.61775L14.0062 13.9956L19.3861 8.61775ZM21.4968 9.46827L20.0831 10.8814C20.5521 11.4439 20.8334 12.1539 20.8334 12.9441C20.8334 14.7189 19.393 16.1588 17.6176 16.1588C16.8337 16.1588 16.1168 15.8776 15.554 15.4087L14.0064 16.9558L12.4588 15.4087C11.8961 15.8776 11.1859 16.1588 10.3953 16.1588C8.61985 16.1588 7.17945 14.7189 7.17945 12.9441C7.17945 12.1606 7.46083 11.4439 7.92982 10.8814L7.20621 10.158L6.51617 9.46827C5.7122 10.7943 5.24994 12.3414 5.24994 14.0023C5.24994 18.8377 9.16924 22.7489 13.9998 22.7489C18.8303 22.7489 22.7496 18.831 22.7496 14.0023C22.763 12.3347 22.3007 10.7876 21.4968 9.46827ZM19.4132 11.5377C19.7147 11.9261 19.8889 12.4084 19.8889 12.9307C19.8889 14.1899 18.8705 15.2078 17.6176 15.2011C17.0883 15.2011 16.606 15.027 16.2241 14.7256L19.4132 11.5377ZM11.7958 14.7324C11.4072 15.0338 10.9248 15.2079 10.4023 15.2079C9.14273 15.2079 8.12431 14.1899 8.13103 12.9376C8.13103 12.4084 8.3052 11.9262 8.6067 11.5445L11.7958 14.7324Z" fill="white"/>
</g>
<defs>
<clipPath id="clip0_497_155">
<rect width="28" height="28" fill="white"/>
</clipPath>
</defs>
</svg>
