<svg width="28" height="28" viewBox="0 0 28 28" fill="none" xmlns="http://www.w3.org/2000/svg">
<rect width="28" height="28" fill="#F3EBFF"/>
<path d="M18.3643 17.2269L22.6337 14.7621C22.8595 14.6316 23 14.3885 23 14.1275V9.19712C23 8.93648 22.8595 8.69306 22.6337 8.56255L18.3643 6.09774C18.1385 5.96723 17.8576 5.96761 17.6318 6.09774L13.3624 8.56255C13.1366 8.69306 12.9961 8.9361 12.9961 9.19712V18.0073L10.0023 19.7353L7.00859 18.0073V14.55L10.0023 12.822L11.9772 13.9618V11.6428L10.3686 10.7143C10.2576 10.6504 10.1309 10.6167 10.0023 10.6167C9.87374 10.6167 9.74706 10.6504 9.63606 10.7143L5.36628 13.1795C5.14046 13.31 5 13.553 5 13.8141V18.7441C5 19.0047 5.14046 19.2481 5.36628 19.3786L9.63568 21.8438C9.86149 21.9739 10.142 21.9739 10.3682 21.8438L14.6376 19.379C14.8634 19.2485 15.0039 19.0051 15.0039 18.7444V9.93427L15.0579 9.90327L17.9977 8.20622L20.9914 9.93465V13.3915L17.9977 15.1199L16.0258 13.9817V16.3007L17.6314 17.228C17.8572 17.3582 18.1385 17.357 18.3643 17.2269Z" fill="url(#paint0_linear_497_153)"/>
<defs>
<linearGradient id="paint0_linear_497_153" x1="6.53017" y1="19.4173" x2="22.0003" y2="8.13695" gradientUnits="userSpaceOnUse">
<stop stop-color="#A726C1"/>
<stop offset="0.88" stop-color="#803BDF"/>
<stop offset="1" stop-color="#7B3FE4"/>
</linearGradient>
</defs>
</svg>
