<svg width="28" height="28" viewBox="0 0 28 28" fill="none" xmlns="http://www.w3.org/2000/svg">
<g clip-path="url(#clip0_510_114)">
<path d="M28 -5.34058e-05H0V27.9999H28V-5.34058e-05Z" fill="#FFF8F3"/>
<path d="M21.7181 17.015L21.7206 6.5773C21.7044 5.70353 21.0121 5 20.1358 5H9.24244C6.89276 5.04006 5 6.95911 5 9.3213C5 10.1187 5.21281 10.7985 5.54079 11.3943C5.81494 11.8913 6.24807 12.3595 6.67995 12.7112C6.79762 12.8076 6.74254 12.7713 7.11183 12.9979C7.62132 13.3109 8.20593 13.4661 8.20593 13.4661L8.20092 19.7077C8.21344 20.0031 8.24598 20.286 8.31859 20.5502C8.5627 21.4277 9.16983 22.1049 10.001 22.4329C10.3478 22.5694 10.7409 22.662 11.1565 22.6645L19.8567 22.6958C21.5917 22.6958 22.9987 21.2875 22.9987 19.55C22.9987 18.5097 22.4943 17.5871 21.7169 17.015H21.7181Z" fill="#FFEEDA"/>
<path d="M21.9284 19.6188C21.8921 20.7329 20.9795 21.6255 19.8579 21.6255L13.8691 21.6017C14.3473 21.0497 14.6353 20.3311 14.6353 19.55C14.6353 18.3207 13.9029 17.4757 13.9029 17.4757H19.8579C21.002 17.4757 21.9296 18.4045 21.9296 19.55V19.6176L21.9284 19.6188Z" fill="#EBC28E"/>
<path d="M7.24452 11.8227C6.55727 11.1717 6.07031 10.328 6.07031 9.32151V9.21511C6.12664 7.50512 7.53495 6.12936 9.24244 6.07428H20.1358C20.4212 6.08429 20.6503 6.28834 20.6503 6.57751V15.7922C20.9019 15.8385 21.0221 15.8686 21.2637 15.9562C21.4515 16.025 21.7206 16.1765 21.7206 16.1765V6.57876C21.7044 5.70499 21.0121 5.00146 20.1358 5.00146H9.24244C6.89276 5.04027 5 6.95932 5 9.32151C5 10.6935 5.62466 11.8615 6.64865 12.6852C6.7175 12.7402 6.7851 12.8116 6.96787 12.8104C7.28834 12.8104 7.51367 12.5575 7.50115 12.2783C7.48988 12.048 7.39349 11.9641 7.24452 11.8227Z" fill="#190602"/>
<path d="M19.8578 16.4041H11.3128C10.7395 16.4091 10.2751 16.8761 10.2751 17.4507V18.6762C10.2914 19.2433 10.7746 19.7302 11.3466 19.7302H11.9813V18.6762H11.3466V17.4769H11.6934C12.7712 17.4769 13.5649 18.4809 13.5649 19.5512C13.5649 20.5001 12.7011 21.7156 11.2503 21.6192C9.96213 21.5329 9.27112 20.3887 9.27112 19.5512V9.13728C9.27112 8.6666 8.88931 8.28479 8.41862 8.28479H7.56738V9.34759H8.20081V19.55C8.16826 21.6242 9.67921 22.6708 11.2515 22.6708L19.8578 22.6958C21.5928 22.6958 22.9999 21.2875 22.9999 19.55C22.9999 17.8124 21.5928 16.4041 19.8578 16.4041ZM21.9283 19.6188C21.892 20.7329 20.9794 21.6255 19.8578 21.6255L13.8691 21.6017C14.3473 21.0497 14.6352 20.3311 14.6352 19.55C14.6352 18.3207 13.9029 17.4757 13.9029 17.4757H19.8578C21.002 17.4757 21.9296 18.4045 21.9296 19.55V19.6176L21.9283 19.6188Z" fill="#190602"/>
<path d="M11.1177 8.47632H17.5583C17.8512 8.47632 18.0891 8.71417 18.0891 9.00709C18.0891 9.30002 17.8512 9.53787 17.5583 9.53787H11.1177V8.47507V8.47632Z" fill="#190602"/>
<path d="M11.1177 13.4924H17.5583C17.8512 13.4924 18.0891 13.7302 18.0891 14.0232C18.0891 14.3161 17.8512 14.5539 17.5583 14.5539H11.1177V13.4911V13.4924Z" fill="#190602"/>
<path d="M11.1177 10.985H18.6912C18.9841 10.985 19.222 11.2228 19.222 11.5158C19.222 11.8087 18.9841 12.0465 18.6912 12.0465H11.1177V10.9837V10.985Z" fill="#190602"/>
</g>
<defs>
<clipPath id="clip0_510_114">
<rect width="28" height="28" fill="white"/>
</clipPath>
</defs>
</svg>
