<svg width="28" height="28" viewBox="0 0 28 28" fill="none" xmlns="http://www.w3.org/2000/svg">
<g clip-path="url(#clip0_510_124)">
<path d="M28 -5.34058e-05H0V27.9999H28V-5.34058e-05Z" fill="#7B3FE4"/>
<path d="M5 14.1901V18.2629C5.00143 18.5168 5.06851 18.7661 5.19474 18.9863C5.32096 19.2064 5.50195 19.39 5.71997 19.5189L9.23563 21.5511C9.45332 21.6813 9.70214 21.75 9.95561 21.75C10.2091 21.75 10.4579 21.6813 10.6756 21.5511L14.1912 19.5189C14.4093 19.39 14.5903 19.2064 14.7165 18.9863C14.8426 18.7661 14.9098 18.5168 14.9112 18.2629V17.1198L13.1112 16.0713V18.0583L9.96126 19.8928L6.8112 18.0583V14.3976L9.96126 12.563L17.3412 16.8531C17.561 16.9773 17.809 17.0426 18.0613 17.0426C18.3135 17.0426 18.5615 16.9773 18.7812 16.8531L22.2969 14.8124C22.5116 14.6816 22.6891 14.4974 22.8122 14.2776C22.9354 14.0579 23 13.81 23 13.5579V9.48507C22.9985 9.2311 22.9314 8.98186 22.8052 8.76173C22.679 8.54158 22.498 8.35805 22.28 8.22912L18.7644 6.19697C18.5462 6.06801 18.2976 6 18.0444 6C17.7912 6 17.5425 6.06801 17.3243 6.19697L13.8088 8.22912C13.5907 8.35805 13.4098 8.54158 13.2835 8.76173C13.1573 8.98186 13.0902 9.2311 13.0887 9.48507V10.6282L14.9 11.6696V9.69399L18.05 7.85939L21.2 9.69399V13.3504L18.05 15.185L10.67 10.8949C10.4502 10.7706 10.2022 10.7054 9.94995 10.7054C9.69776 10.7054 9.44978 10.7706 9.22998 10.8949L5.71432 12.9355C5.49756 13.065 5.31784 13.2486 5.19263 13.4685C5.0675 13.6883 5.0011 13.937 5 14.1901Z" fill="white"/>
</g>
<defs>
<clipPath id="clip0_510_124">
<rect width="28" height="28" fill="white"/>
</clipPath>
</defs>
</svg>
