<svg version="1.1" id="Layer_1" xmlns="http://www.w3.org/2000/svg" xmlns:xlink="http://www.w3.org/1999/xlink" x="0px" y="0px"
	 width="100%" viewBox="0 0 400 400" enable-background="new 0 0 400 400" xml:space="preserve">
<path fill="#D7FF01" opacity="1.000000" stroke="none" 
	d="
M272.000000,401.000000 
	C181.361511,401.000000 91.223015,401.000000 1.042259,401.000000 
	C1.042259,267.736511 1.042259,134.473007 1.042259,1.104748 
	C134.221771,1.104748 267.443634,1.104748 400.832764,1.104748 
	C400.832764,134.333160 400.832764,267.666565 400.832764,401.000000 
	C358.139740,401.000000 315.319885,401.000000 272.000000,401.000000 
M275.276062,196.160431 
	C275.276062,196.160431 275.489655,196.100937 274.843140,196.606613 
	C274.659180,197.653915 274.475220,198.701218 274.455902,199.924271 
	C274.455902,199.924271 274.302948,200.110260 273.692688,200.659225 
	C273.469727,201.944717 273.054108,203.229889 273.051941,204.515747 
	C272.995819,237.756332 272.973785,270.997009 273.011414,304.237579 
	C273.012421,305.114868 273.743652,305.991302 274.760620,306.892700 
	C275.167694,306.985260 275.574768,307.077820 276.686493,307.608063 
	C290.722229,307.723907 304.757874,307.855774 318.793854,307.909210 
	C319.510925,307.911957 320.230560,307.240753 320.994690,306.267609 
	C321.052216,305.862030 321.109741,305.456482 321.597992,304.335907 
	C321.733978,302.855194 321.988434,301.374512 321.988892,299.893768 
	C322.008606,234.019073 322.012482,168.144394 321.970795,102.269722 
	C321.969666,100.496033 321.446838,98.722672 321.020844,96.349304 
	C320.996857,95.938408 320.972870,95.527519 320.353363,94.538643 
	C319.389587,94.355133 318.426117,94.013374 317.461945,94.011414 
	C296.412262,93.968689 275.362427,93.940613 254.312912,94.005028 
	C252.949524,94.009193 251.588501,94.781166 250.219681,95.893555 
	C249.818878,96.927696 249.418076,97.961845 248.931274,99.527008 
	C248.965225,99.703072 248.999161,99.879143 248.990662,100.024071 
	C248.990662,100.024071 249.037766,100.000587 248.381180,100.275917 
	C244.396194,111.025574 240.386871,121.766388 236.473770,132.542145 
	C236.169983,133.378662 236.541245,134.460297 236.581116,135.471375 
	C236.581116,135.471375 236.570358,135.516937 235.916840,135.639969 
	C235.440353,137.512741 234.963867,139.385529 234.166016,141.967926 
	C232.175369,147.861115 230.271210,153.785233 228.177933,159.641739 
	C221.818008,177.435272 215.384995,195.202682 208.266968,213.303589 
	C207.821442,215.155090 207.021667,217.000732 206.990982,218.859085 
	C206.848740,227.475479 206.819885,236.097000 206.957764,244.713379 
	C207.024414,248.878632 205.999908,251.028183 201.131744,251.091873 
	C195.999069,251.159027 194.932083,248.894150 195.017181,244.489151 
	C195.186829,235.708023 195.172363,226.919022 194.979187,218.138885 
	C194.941605,216.431213 193.745316,214.749054 192.705948,212.416306 
	C184.539566,189.840958 176.354599,167.272293 168.253540,144.673523 
	C167.773422,143.334167 167.967224,141.753250 167.851334,139.478302 
	C167.500687,138.030151 167.280823,136.534897 166.778885,135.141220 
	C162.458237,123.144722 158.111221,111.157532 153.708755,99.190849 
	C152.869980,96.910889 153.206177,93.447540 148.154694,93.954704 
	C127.675919,93.963234 107.197014,93.942085 86.718582,94.029640 
	C84.827896,94.037727 82.940163,94.737877 81.005295,95.732567 
	C80.947731,96.138245 80.890167,96.543915 80.401886,97.664467 
	C80.265923,99.145172 80.011467,100.625832 80.011024,102.106583 
	C79.991318,167.980988 79.987427,233.855408 80.029099,299.729797 
	C80.030220,301.503479 80.553055,303.276825 80.978981,305.650360 
	C81.003029,306.061371 81.027069,306.472382 81.646622,307.461395 
	C82.781883,307.646759 83.916626,307.989624 85.052475,307.993317 
	C97.544754,308.033936 110.037346,308.049438 122.529419,307.986298 
	C123.969437,307.979034 125.406845,307.454529 127.344345,306.899567 
	C127.532440,306.879822 127.720535,306.860107 128.479538,306.879181 
	C128.672516,306.274780 129.034210,305.670380 129.034256,305.065979 
	C129.036331,271.466370 129.022995,237.866699 128.929764,204.267273 
	C128.925980,202.902969 128.140167,201.540848 127.313332,199.564194 
	C122.505577,183.890518 117.697815,168.216843 113.035103,151.626999 
	C112.710617,149.499176 112.215523,147.380768 112.097328,145.241547 
	C111.854950,140.854752 115.443916,140.630157 118.384346,139.565140 
	C121.530640,138.425537 122.024895,140.535034 122.820900,142.634186 
	C124.977013,148.320053 127.377289,153.918121 129.384064,159.654785 
	C132.881424,169.652496 136.023743,179.775482 139.590500,189.747375 
	C140.988495,193.655884 143.128738,197.298889 145.078339,201.809082 
	C145.769104,204.143646 146.459869,206.478210 147.151169,209.600113 
	C147.447327,210.886505 147.625366,212.214111 148.057739,213.452957 
	C152.883331,227.279282 157.662674,241.122879 162.648468,254.891571 
	C164.412598,259.763336 166.706100,264.443420 168.931839,269.740326 
	C169.215714,270.218719 169.499588,270.697083 169.836487,272.012726 
	C169.906677,273.009583 169.763702,274.080322 170.079636,274.992035 
	C173.701813,285.445129 177.306107,295.907013 181.203720,306.257935 
	C181.590424,307.284882 183.875427,308.134583 185.289062,308.149536 
	C194.113235,308.242950 202.940048,308.026184 211.766205,308.007599 
	C221.195068,307.987732 221.393829,307.882568 223.759216,298.806580 
	C223.842850,298.485626 223.823349,298.132751 223.935074,297.824921 
	C227.481598,288.054108 231.143982,278.323639 234.548767,268.503815 
	C236.226685,263.664490 237.431290,258.661072 238.894485,252.936050 
	C239.032883,251.636215 238.919861,250.246597 239.347244,249.049973 
	C246.206314,229.845123 253.160950,210.674469 260.038788,191.476303 
	C266.535797,173.341156 272.968567,155.183029 279.611938,136.522781 
	C283.488831,137.854095 287.135803,138.905655 290.572601,140.430801 
	C291.409363,140.802139 292.220856,142.934723 291.920074,143.911255 
	C286.838928,160.405731 281.579865,176.845413 275.757172,193.647186 
	C275.623749,194.553741 275.490356,195.460312 275.276062,196.160431 
z"/>
<path fill="#020201" opacity="1.000000" stroke="none" 
	d="
M208.980469,212.980286 
	C215.384995,195.202682 221.818008,177.435272 228.177933,159.641739 
	C230.271210,153.785233 232.175369,147.861115 234.579056,141.382034 
	C235.518188,139.036407 236.044266,137.276672 236.570358,135.516937 
	C236.570358,135.516937 236.581116,135.471375 236.817566,135.195648 
	C241.048599,123.280128 245.043182,111.640358 249.037766,100.000587 
	C249.037766,100.000587 248.990662,100.024071 249.128967,99.930969 
	C249.366074,99.490921 249.282745,99.210289 249.017273,98.995995 
	C249.418076,97.961845 249.818878,96.927696 250.671112,95.545761 
	C274.397980,95.170845 297.673431,95.143738 320.948853,95.116623 
	C320.972870,95.527519 320.996857,95.938408 321.020569,97.118973 
	C321.013550,165.116135 321.005463,232.343628 321.007080,299.571136 
	C321.007111,301.397736 321.111542,303.224304 321.167267,305.050903 
	C321.109741,305.456482 321.052216,305.862030 320.509033,306.623047 
	C305.342834,307.042450 290.662354,307.106384 275.981842,307.170349 
	C275.574768,307.077820 275.167694,306.985260 274.465271,306.419037 
	C274.214264,270.666992 274.258606,235.388626 274.302948,200.110260 
	C274.302948,200.110260 274.455902,199.924271 274.618958,199.531281 
	C275.017914,198.125839 275.253784,197.113388 275.489655,196.100937 
	C275.489655,196.100937 275.276062,196.160431 275.558868,196.023468 
	C276.014526,195.023422 276.187378,194.160324 276.360229,193.297226 
	C281.579865,176.845413 286.838928,160.405731 291.920074,143.911255 
	C292.220856,142.934723 291.409363,140.802139 290.572601,140.430801 
	C287.135803,138.905655 283.488831,137.854095 279.611938,136.522781 
	C272.968567,155.183029 266.535797,173.341156 260.038788,191.476303 
	C253.160950,210.674469 246.206314,229.845123 239.347244,249.049973 
	C238.919861,250.246597 239.032883,251.636215 238.524963,253.430206 
	C237.474533,255.391296 236.686310,256.818787 236.130020,258.331573 
	C232.374771,268.543762 228.668625,278.774078 224.558609,289.004333 
	C222.903885,289.505890 221.637146,290.001617 220.370407,290.497375 
	C221.299118,291.675781 222.227829,292.854187 223.115387,294.386230 
	C222.885742,295.174103 222.697220,295.608368 222.364532,296.174255 
	C222.063644,296.528778 221.996277,296.776062 222.003174,297.379852 
	C221.722748,298.305054 221.457397,298.898102 221.102417,299.139465 
	C220.030655,298.865021 218.255249,298.762207 218.190491,299.047577 
	C217.614655,301.585114 217.341309,304.191284 216.516464,306.849731 
	C206.257721,306.928772 196.460220,306.859467 186.665512,306.993164 
	C184.107346,307.028107 182.834671,306.214569 182.031693,303.725494 
	C179.595123,296.172516 176.905350,288.701263 174.640305,280.954285 
	C177.756363,275.775391 176.144775,270.938477 175.427826,265.671021 
	C173.943390,268.658966 172.786575,270.987427 171.703613,273.230774 
	C171.777466,273.145691 171.674942,273.346375 171.660049,273.088623 
	C171.449371,272.555054 171.253601,272.279266 170.931641,271.851227 
	C170.805450,271.698975 170.849747,271.305939 170.946472,270.934021 
	C171.708496,268.119202 172.808838,265.485565 168.412750,264.903137 
	C167.580612,262.828735 167.005493,261.000610 166.760834,259.018188 
	C167.390610,256.582123 167.689911,254.300293 167.989212,252.018448 
	C167.445038,251.916443 166.900879,251.814423 166.356705,251.712402 
	C165.780930,252.392181 165.205139,253.071945 164.404938,253.468750 
	C163.775833,251.810898 163.371185,250.436035 162.958435,248.777206 
	C162.697144,248.000076 162.443970,247.506897 161.965576,246.711456 
	C157.594635,234.850830 153.475052,223.282913 149.260605,211.749664 
	C148.862183,210.659286 147.868149,209.786560 147.150650,208.812775 
	C146.459869,206.478210 145.769104,204.143646 145.076126,201.038422 
	C137.651489,179.153305 130.229065,158.038849 122.941071,137.306808 
	C122.166283,137.046921 122.002640,136.931381 121.859085,136.952484 
	C109.083969,138.830185 107.967705,140.772873 112.890060,152.543167 
	C117.697815,168.216843 122.505577,183.890518 127.531250,200.323914 
	C127.802322,236.335861 127.855484,271.588104 127.908638,306.840363 
	C127.720535,306.860107 127.532440,306.879822 126.650116,306.947174 
	C110.987633,306.957642 96.019379,306.920502 81.051117,306.883392 
	C81.027069,306.472382 81.003029,306.061371 80.979202,304.880676 
	C80.986115,237.216583 80.994370,170.322174 80.992455,103.427765 
	C80.992393,101.268372 80.888237,99.108986 80.832603,96.949593 
	C80.890167,96.543915 80.947731,96.138245 81.490982,95.377029 
	C104.321007,94.969780 126.665359,94.918076 149.370819,94.981201 
	C150.477905,96.298180 151.462311,97.414146 151.932755,98.715874 
	C156.343353,110.920135 160.627731,123.170097 165.057053,135.367447 
	C165.691284,137.113983 166.902985,138.650833 167.847443,140.284729 
	C167.967224,141.753250 167.773422,143.334167 168.253540,144.673523 
	C176.354599,167.272293 184.539566,189.840958 192.893677,213.149124 
	C193.377533,216.001785 193.911499,218.119598 193.929504,220.241791 
	C194.018082,230.686066 193.969757,241.131516 193.969757,251.682861 
	C198.920822,251.682861 203.454056,251.682861 208.050613,251.682861 
	C208.050613,247.802475 207.967758,244.305084 208.066635,240.812866 
	C208.329376,231.534149 208.670517,222.257660 208.980469,212.980286 
z"/>
<path fill="#C4DF27" opacity="1.000000" stroke="none" 
	d="
M170.849747,271.305939 
	C170.849747,271.305939 170.805450,271.698975 170.900818,272.120514 
	C171.222443,272.810150 171.448685,273.078278 171.674942,273.346375 
	C171.674942,273.346375 171.777466,273.145691 171.677780,273.595886 
	C172.490128,276.430115 173.402161,278.814148 174.314194,281.198181 
	C176.905350,288.701263 179.595123,296.172516 182.031693,303.725494 
	C182.834671,306.214569 184.107346,307.028107 186.665512,306.993164 
	C196.460220,306.859467 206.257721,306.928772 216.876740,306.895325 
	C218.863541,304.409302 220.027802,301.950226 221.192047,299.491150 
	C221.457397,298.898102 221.722748,298.305054 222.192703,297.274658 
	C222.649155,296.602448 222.686295,296.337585 222.508698,296.042633 
	C222.697220,295.608368 222.885742,295.174103 223.354309,294.146301 
	C224.071793,292.034698 224.509186,290.516602 224.946594,288.998505 
	C228.668625,278.774078 232.374771,268.543762 236.130020,258.331573 
	C236.686310,256.818787 237.474533,255.391296 238.502762,253.828125 
	C237.431290,258.661072 236.226685,263.664490 234.548767,268.503815 
	C231.143982,278.323639 227.481598,288.054108 223.935074,297.824921 
	C223.823349,298.132751 223.842850,298.485626 223.759216,298.806580 
	C221.393829,307.882568 221.195068,307.987732 211.766205,308.007599 
	C202.940048,308.026184 194.113235,308.242950 185.289062,308.149536 
	C183.875427,308.134583 181.590424,307.284882 181.203720,306.257935 
	C177.306107,295.907013 173.701813,285.445129 170.079636,274.992035 
	C169.763702,274.080322 169.906677,273.009583 169.888535,271.529999 
	C169.940582,271.047272 170.096741,270.917877 170.274963,271.034332 
	C170.453201,271.150787 170.849747,271.305939 170.849747,271.305939 
z"/>
<path fill="#D7F531" opacity="1.000000" stroke="none" 
	d="
M80.617249,97.307030 
	C80.888237,99.108986 80.992393,101.268372 80.992455,103.427765 
	C80.994370,170.322174 80.986115,237.216583 80.906006,304.580658 
	C80.553055,303.276825 80.030220,301.503479 80.029099,299.729797 
	C79.987427,233.855408 79.991318,167.980988 80.011024,102.106583 
	C80.011467,100.625832 80.265923,99.145172 80.617249,97.307030 
z"/>
<path fill="#D7F531" opacity="1.000000" stroke="none" 
	d="
M321.382629,304.693420 
	C321.111542,303.224304 321.007111,301.397736 321.007080,299.571136 
	C321.005463,232.343628 321.013550,165.116135 321.093811,97.418900 
	C321.446838,98.722672 321.969666,100.496033 321.970795,102.269722 
	C322.012482,168.144394 322.008606,234.019073 321.988892,299.893768 
	C321.988434,301.374512 321.733978,302.855194 321.382629,304.693420 
z"/>
<path fill="#BED92B" opacity="1.000000" stroke="none" 
	d="
M112.962585,152.085083 
	C107.967705,140.772873 109.083969,138.830185 121.859085,136.952484 
	C122.002640,136.931381 122.166283,137.046921 122.941071,137.306808 
	C130.229065,158.038849 137.651489,179.153305 145.002441,200.665283 
	C143.128738,197.298889 140.988495,193.655884 139.590500,189.747375 
	C136.023743,179.775482 132.881424,169.652496 129.384064,159.654785 
	C127.377289,153.918121 124.977013,148.320053 122.820900,142.634186 
	C122.024895,140.535034 121.530640,138.425537 118.384346,139.565140 
	C115.443916,140.630157 111.854950,140.854752 112.097328,145.241547 
	C112.215523,147.380768 112.710617,149.499176 112.962585,152.085083 
z"/>
<path fill="#C4DF27" opacity="1.000000" stroke="none" 
	d="
M162.966522,249.061157 
	C163.371185,250.436035 163.775833,251.810898 164.375580,253.706711 
	C164.631393,254.564789 164.808502,254.821747 165.076660,255.296021 
	C165.300491,256.109711 165.549637,256.625916 165.772949,257.420105 
	C165.974884,258.189575 166.202621,258.681030 166.430359,259.172455 
	C167.005493,261.000610 167.580612,262.828735 168.444763,265.270142 
	C168.914185,266.848480 169.094589,267.813507 169.145782,268.886749 
	C169.016586,268.994934 168.757919,269.210999 168.757919,269.210999 
	C166.706100,264.443420 164.412598,259.763336 162.648468,254.891571 
	C157.662674,241.122879 152.883331,227.279282 148.057739,213.452957 
	C147.625366,212.214111 147.447327,210.886505 147.150909,209.206451 
	C147.868149,209.786560 148.862183,210.659286 149.260605,211.749664 
	C153.475052,223.282913 157.594635,234.850830 161.929535,247.009933 
	C162.401321,248.094177 162.683914,248.577667 162.966522,249.061157 
z"/>
<path fill="#D5F14C" opacity="1.000000" stroke="none" 
	d="
M128.194092,306.859772 
	C127.855484,271.588104 127.802322,236.335861 127.733940,200.630661 
	C128.140167,201.540848 128.925980,202.902969 128.929764,204.267273 
	C129.022995,237.866699 129.036331,271.466370 129.034256,305.065979 
	C129.034210,305.670380 128.672516,306.274780 128.194092,306.859772 
z"/>
<path fill="#D2F24D" opacity="1.000000" stroke="none" 
	d="
M273.997803,200.384735 
	C274.258606,235.388626 274.214264,270.666992 274.152100,306.406738 
	C273.743652,305.991302 273.012421,305.114868 273.011414,304.237579 
	C272.973785,270.997009 272.995819,237.756332 273.051941,204.515747 
	C273.054108,203.229889 273.469727,201.944717 273.997803,200.384735 
z"/>
<path fill="#BED92B" opacity="1.000000" stroke="none" 
	d="
M167.849380,139.881516 
	C166.902985,138.650833 165.691284,137.113983 165.057053,135.367447 
	C160.627731,123.170097 156.343353,110.920135 151.932755,98.715874 
	C151.462311,97.414146 150.477905,96.298180 149.392181,94.755440 
	C149.052444,94.414841 149.115936,93.965668 149.115936,93.965668 
	C153.206177,93.447540 152.869980,96.910889 153.708755,99.190849 
	C158.111221,111.157532 162.458237,123.144722 166.778885,135.141220 
	C167.280823,136.534897 167.500687,138.030151 167.849380,139.881516 
z"/>
<path fill="#CCE555" opacity="1.000000" stroke="none" 
	d="
M208.623718,213.141937 
	C208.670517,222.257660 208.329376,231.534149 208.066635,240.812866 
	C207.967758,244.305084 208.050613,247.802475 208.050613,251.682861 
	C203.454056,251.682861 198.920822,251.682861 193.969757,251.682861 
	C193.969757,241.131516 194.018082,230.686066 193.929504,220.241791 
	C193.911499,218.119598 193.377533,216.001785 193.082458,213.468536 
	C193.745316,214.749054 194.941605,216.431213 194.979187,218.138885 
	C195.172363,226.919022 195.186829,235.708023 195.017181,244.489151 
	C194.932083,248.894150 195.999069,251.159027 201.131744,251.091873 
	C205.999908,251.028183 207.024414,248.878632 206.957764,244.713379 
	C206.819885,236.097000 206.848740,227.475479 206.990982,218.859085 
	C207.021667,217.000732 207.821442,215.155090 208.623718,213.141937 
z"/>
<path fill="#BED92B" opacity="1.000000" stroke="none" 
	d="
M248.709473,100.138252 
	C245.043182,111.640358 241.048599,123.280128 236.826385,135.173950 
	C236.541245,134.460297 236.169983,133.378662 236.473770,132.542145 
	C240.386871,121.766388 244.396194,111.025574 248.709473,100.138252 
z"/>
<path fill="#D5F33B" opacity="1.000000" stroke="none" 
	d="
M320.651123,94.827637 
	C297.673431,95.143738 274.397980,95.170845 250.674469,95.196976 
	C251.588501,94.781166 252.949524,94.009193 254.312912,94.005028 
	C275.362427,93.940613 296.412262,93.968689 317.461945,94.011414 
	C318.426117,94.013374 319.389587,94.355133 320.651123,94.827637 
z"/>
<path fill="#D5F33B" opacity="1.000000" stroke="none" 
	d="
M148.635315,93.960190 
	C149.115936,93.965668 149.052444,94.414841 149.031067,94.640610 
	C126.665359,94.918076 104.321007,94.969780 81.513863,95.069077 
	C82.940163,94.737877 84.827896,94.037727 86.718582,94.029640 
	C107.197014,93.942085 127.675919,93.963234 148.635315,93.960190 
z"/>
<path fill="#D5F33B" opacity="1.000000" stroke="none" 
	d="
M81.348869,307.172394 
	C96.019379,306.920502 110.987633,306.957642 126.400681,307.082306 
	C125.406845,307.454529 123.969437,307.979034 122.529419,307.986298 
	C110.037346,308.049438 97.544754,308.033936 85.052475,307.993317 
	C83.916626,307.989624 82.781883,307.646759 81.348869,307.172394 
z"/>
<path fill="#D5F33B" opacity="1.000000" stroke="none" 
	d="
M276.334167,307.389221 
	C290.662354,307.106384 305.342834,307.042450 320.486145,306.930908 
	C320.230560,307.240753 319.510925,307.911957 318.793854,307.909210 
	C304.757874,307.855774 290.722229,307.723907 276.334167,307.389221 
z"/>
<path fill="#BED92B" opacity="1.000000" stroke="none" 
	d="
M236.243591,135.578461 
	C236.044266,137.276672 235.518188,139.036407 234.739746,141.027222 
	C234.963867,139.385529 235.440353,137.512741 236.243591,135.578461 
z"/>
<path fill="#D2F24D" opacity="1.000000" stroke="none" 
	d="
M275.166382,196.353775 
	C275.253784,197.113388 275.017914,198.125839 274.536621,199.443420 
	C274.475220,198.701218 274.659180,197.653915 275.166382,196.353775 
z"/>
<path fill="#D2F24D" opacity="1.000000" stroke="none" 
	d="
M276.058716,193.472198 
	C276.187378,194.160324 276.014526,195.023422 275.599304,196.126694 
	C275.490356,195.460312 275.623749,194.553741 276.058716,193.472198 
z"/>
<path fill="#C4DF27" opacity="1.000000" stroke="none" 
	d="
M169.862030,271.111389 
	C169.499588,270.697083 169.215714,270.218719 168.844879,269.475647 
	C168.757919,269.210999 169.016586,268.994934 169.365204,269.092224 
	C169.841446,269.765625 169.969101,270.341766 170.096741,270.917877 
	C170.096741,270.917877 169.940582,271.047272 169.862030,271.111389 
z"/>
<path fill="#BED92B" opacity="1.000000" stroke="none" 
	d="
M248.974274,99.261505 
	C249.282745,99.210289 249.366074,99.490921 249.150177,99.946541 
	C248.999161,99.879143 248.965225,99.703072 248.974274,99.261505 
z"/>
<path fill="#0F120A" opacity="1.000000" stroke="none" 
	d="
M174.640305,280.954285 
	C173.402161,278.814148 172.490128,276.430115 171.603943,273.680969 
	C172.786575,270.987427 173.943390,268.658966 175.427826,265.671021 
	C176.144775,270.938477 177.756363,275.775391 174.640305,280.954285 
z"/>
<path fill="#111507" opacity="1.000000" stroke="none" 
	d="
M221.102417,299.139465 
	C220.027802,301.950226 218.863541,304.409302 217.339020,306.822815 
	C217.341309,304.191284 217.614655,301.585114 218.190491,299.047577 
	C218.255249,298.762207 220.030655,298.865021 221.102417,299.139465 
z"/>
<path fill="#111507" opacity="1.000000" stroke="none" 
	d="
M224.558594,289.004333 
	C224.509186,290.516602 224.071793,292.034698 223.395462,293.792694 
	C222.227829,292.854187 221.299118,291.675781 220.370407,290.497375 
	C221.637146,290.001617 222.903885,289.505890 224.558594,289.004333 
z"/>
<path fill="#0F120A" opacity="1.000000" stroke="none" 
	d="
M165.101974,254.998489 
	C164.808502,254.821747 164.631393,254.564789 164.600006,253.989685 
	C165.205139,253.071945 165.780930,252.392181 166.356705,251.712402 
	C166.900879,251.814423 167.445038,251.916443 167.989212,252.018448 
	C167.689911,254.300293 167.390610,256.582123 166.760834,259.018188 
	C166.202621,258.681030 165.974884,258.189575 165.960083,257.231506 
	C165.815994,256.176056 165.458984,255.587280 165.101974,254.998489 
z"/>
<path fill="#0F120A" opacity="1.000000" stroke="none" 
	d="
M170.274963,271.034332 
	C169.969101,270.341766 169.841446,269.765625 169.494385,268.984039 
	C169.094589,267.813507 168.914185,266.848480 168.701782,265.516418 
	C172.808838,265.485565 171.708496,268.119202 170.946472,270.934021 
	C170.849747,271.305939 170.453201,271.150787 170.274963,271.034332 
z"/>
<path fill="#0F120A" opacity="1.000000" stroke="none" 
	d="
M162.958435,248.777206 
	C162.683914,248.577667 162.401321,248.094177 162.154755,247.312195 
	C162.443970,247.506897 162.697144,248.000076 162.958435,248.777206 
z"/>
<path fill="#0F120A" opacity="1.000000" stroke="none" 
	d="
M171.660049,273.088623 
	C171.448685,273.078278 171.222443,272.810150 171.027008,272.272766 
	C171.253601,272.279266 171.449371,272.555054 171.660049,273.088623 
z"/>
<path fill="#111507" opacity="1.000000" stroke="none" 
	d="
M222.364517,296.174255 
	C222.686295,296.337585 222.649155,296.602448 222.207779,296.942444 
	C221.996277,296.776062 222.063644,296.528778 222.364517,296.174255 
z"/>
<path fill="#020201" opacity="1.000000" stroke="none" 
	d="
M165.076660,255.296021 
	C165.458984,255.587280 165.815994,256.176056 165.985901,256.953461 
	C165.549637,256.625916 165.300491,256.109711 165.076660,255.296021 
z"/>
</svg>