<svg width="28" height="28" viewBox="0 0 28 28" fill="none" xmlns="http://www.w3.org/2000/svg">
<rect width="28" height="28" fill="#6ED34A"/>
<path d="M14.0003 5.79879C14.3512 5.79769 14.6954 5.89481 14.9939 6.07918C15.2925 6.26355 15.5334 6.5278 15.6896 6.84202L21.0021 17.467C21.1462 17.755 21.2143 18.075 21.2 18.3967C21.1856 18.7185 21.0892 19.0312 20.9199 19.3051C20.7507 19.5791 20.5141 19.8053 20.2329 19.9621C19.9516 20.1189 19.6349 20.2012 19.3128 20.2011H8.68787C8.36587 20.2011 8.04923 20.1187 7.76802 19.9619C7.48681 19.805 7.25038 19.5789 7.08118 19.3049C6.91198 19.0309 6.81563 18.7183 6.80128 18.3966C6.78693 18.0749 6.85506 17.7549 6.99921 17.467L12.3111 6.84202C12.4672 6.5278 12.7082 6.26355 13.0068 6.07918C13.3053 5.89481 13.6495 5.79769 14.0003 5.79879ZM14.0003 4.5C13.4085 4.49994 12.8283 4.66467 12.3248 4.97573C11.8213 5.28679 11.4143 5.7319 11.1495 6.26119L5.83698 16.8862C5.59381 17.3721 5.47893 17.9122 5.50326 18.4551C5.52758 18.998 5.6903 19.5257 5.97596 19.988C6.26161 20.4503 6.66072 20.8318 7.13537 21.0965C7.61001 21.3611 8.14443 21.5 8.68787 21.4999H19.3128C19.8562 21.4999 20.3906 21.3609 20.8651 21.0963C21.3397 20.8316 21.7387 20.45 22.0243 19.9877C22.3099 19.5254 22.4726 18.9978 22.4969 18.455C22.5212 17.9121 22.4063 17.3721 22.1631 16.8862L16.8512 6.26119C16.5864 5.7319 16.1794 5.28679 15.6759 4.97573C15.1724 4.66467 14.5922 4.49994 14.0003 4.5Z" fill="white"/>
</svg>
